# xmcd
#
# Track frame offsets: 
#        150
#        14085
#        29812
#        47837
#        63662
#        77860
#        92057
#        109570
#        124195
#        137242
#
# Disc length: 2121 seconds
#
# Revision: 0
# Processed by: cddbd v1.5.2PL0 Copyright (c) Steve Scherf et al.
# Submitted via: ExactAudioCopy v0.95b4
#
DISCID=9108470a
DTITLE=Lamont Cranston Band - Tiger In Your Tank
DYEAR=1988
DGENRE=Blues
TTITLE0=Hurry Hurry Baby
TTITLE1=Sittin' On It
TTITLE2=Tiger In Your Tank
TTITLE3=It Only Hurts A Little While
TTITLE4=Quarter Past Nine
TTITLE5=T-Model Boogie
TTITLE6=Ain't No Time for Fussin'
TTITLE7=House Party
TTITLE8=Shadow's Groove
TTITLE9=As the Years Go Passin' By
EXTD=
EXTT0=
EXTT1=
EXTT2=
EXTT3=
EXTT4=
EXTT5=
EXTT6=
EXTT7=
EXTT8=
EXTT9=
PLAYORDER=
